<svg focusable="false" xmlns="http://www.w3.org/2000/svg" enable-background="new 0 0 24 24" height="24" viewBox="0 0 24 24" width="24">
<g><rect fill="none" height="24" width="24"></rect></g><g>
<g>
<path fill="#1a73e8" d="M19,15.17V8.83c0-0.54-0.29-1.03-0.75-1.3l-5.5-3.18c-0.46-0.27-1.04-0.27-1.5,0l-5.5,3.18C5.29,7.79,5,8.28,5,8.83v6.35 c0,0.54,0.29,1.03,0.75,1.3l5.5,3.18c0.46,0.27,1.04,0.27,1.5,0l5.5-3.18C18.71,16.2,19,15.71,19,15.17z M11,17.2l-4-2.31v-4.62 l4,2.32V17.2z M12,10.85L8,8.53l4-2.31l4,2.31L12,10.85z M17,14.89l-4,2.31v-4.61l4-2.32V14.89z"></path>
<path fill="#1a73e8" d="M3,4c0-0.55,0.45-1,1-1h2V1H4C2.34,1,1,2.34,1,4v2h2V4z"></path>
<path fill="#1a73e8" d="M3,20v-2H1v2c0,1.66,1.34,3,3,3h2v-2H4C3.45,21,3,20.55,3,20z"></path>
<path fill="#1a73e8" d="M20,1h-2v2h2c0.55,0,1,0.45,1,1v2h2V4C23,2.34,21.66,1,20,1z"></path>
<path fill="#1a73e8" d="M21,20c0,0.55-0.45,1-1,1h-2v2h2c1.66,0,3-1.34,3-3v-2h-2V20z"></path></g></g></svg>