
<svg xmlns="http://www.w3.org/2000/svg" xmlns:xlink="http://www.w3.org/1999/xlink" width="20" height="19"><defs><path id="a" d="M.045.038h7.244v7.12H.045z"/><path id="c" d="M0 .038h7.244v7.12H0z"/></defs><g fill="none" fill-rule="evenodd"><g transform="translate(12.006 -.015)"><mask id="b" fill="#fff"><use xlink:href="#a"/></mask><path fill="#FBBC05" d="M2.115 2.58c1.423 0 2.587 1.145 2.587 2.543v2.034H7.29V5.123c0-2.81-2.315-5.085-5.174-5.085H.045V2.58h2.07z" mask="url(#b)"/></g><g transform="translate(.667 -.015)"><mask id="d" fill="#fff"><use xlink:href="#c"/></mask><path fill="#EA4335" d="M2.587 5.123c0-1.398 1.164-2.542 2.587-2.542h2.07V.038h-2.07C2.316.038 0 2.314 0 5.123v2.034h2.587V5.123z" mask="url(#d)"/></g><path fill="#4285F4" d="M5.841 15.788c-1.423 0-2.587-1.144-2.587-2.543v-2.034H.667v2.034c0 2.81 2.315 5.086 5.174 5.086h2.07v-2.543H5.84z"/><path fill="#34A853" d="M16.19 17.313c1.143 0 2.07-.91 2.07-2.034 0-1.123-.927-2.034-2.07-2.034-1.143 0-2.07.91-2.07 2.034 0 1.124.927 2.034 2.07 2.034"/><path fill="#4285F4" d="M9.98 12.737c2.001 0 3.623-1.594 3.623-3.56s-1.622-3.56-3.622-3.56c-2 0-3.622 1.594-3.622 3.56s1.621 3.56 3.622 3.56"/></g></svg>